<?xml version="1.0" encoding="UTF-8"?>
<svg xmlns="http://www.w3.org/2000/svg" width="512" height="448" viewBox="0 0 512 448" fill="none" role="img" aria-labelledby="title desc">
<title id="title">Fathomgate | Gradient gateway icon for dark backgrounds</title>
<desc id="desc">Gradient gateway icon for dark backgrounds. Manually reconstructed as editable vector paths from the owner-supplied approved concept. Transparent background; no embedded bitmap, external font, or linked asset.</desc>
<defs>
  <linearGradient id="fg-icon-dark-gate" x1="256" y1="138" x2="256" y2="405" gradientUnits="userSpaceOnUse">
    <stop offset="0" stop-color="#B5FAFF"/>
    <stop offset="0.28" stop-color="#35E7EE"/>
    <stop offset="0.70" stop-color="#00D4C7"/>
    <stop offset="1" stop-color="#074263"/>
  </linearGradient>
  <linearGradient id="fg-icon-dark-edge" x1="256" y1="138" x2="256" y2="337" gradientUnits="userSpaceOnUse">
    <stop offset="0" stop-color="#F2FFFF" stop-opacity="0.95"/>
    <stop offset="0.62" stop-color="#69F3F1" stop-opacity="0.30"/>
    <stop offset="1" stop-color="#00D4C7" stop-opacity="0"/>
  </linearGradient>
  <linearGradient id="fg-icon-dark-panel" x1="111" y1="232" x2="150" y2="340" gradientUnits="userSpaceOnUse">
    <stop offset="0" stop-color="#91C5E0"/>
    <stop offset="0.50" stop-color="#4D97BC"/>
    <stop offset="1" stop-color="#0D547E"/>
  </linearGradient>
  <linearGradient id="fg-icon-dark-ring" x1="256" y1="14" x2="256" y2="342" gradientUnits="userSpaceOnUse">
    <stop offset="0" stop-color="#145775"/>
    <stop offset="0.60" stop-color="#125875"/>
    <stop offset="1" stop-color="#0B2C46" stop-opacity="0.2"/>
  </linearGradient>
  <linearGradient id="fg-icon-dark-step" x1="0" y1="0" x2="0" y2="1">
    <stop offset="0" stop-color="#63F3F3"/>
    <stop offset="0.26" stop-color="#00E2E9"/>
    <stop offset="1" stop-color="#00AEC3"/>
  </linearGradient>
  <linearGradient id="fg-icon-dark-word" x1="0" y1="0" x2="0" y2="1">
    <stop offset="0" stop-color="#00E7EB"/>
    <stop offset="1" stop-color="#00C9CE"/>
  </linearGradient>
</defs>
<g transform="translate(0 14)"><g id="sonar-boundaries">
<path id="boundary-1" d="M67.206,341 A218,218 0 1 1 444.794,341 L441.329,339 A214,214 0 1 0 70.671,339 Z" fill="url(#fg-icon-dark-ring)"/>
<path id="boundary-2" d="M97.396,305.958 A175,175 0 1 1 414.604,305.958 L410.979,304.268 A171,171 0 1 0 101.021,304.268 Z" fill="url(#fg-icon-dark-ring)"/>
<path id="boundary-3" d="M122.066,208.384 A136,136 0 0 1 389.934,208.384 L385.502,209.165 A131.5,131.5 0 0 0 126.498,209.165 Z" fill="url(#fg-icon-dark-ring)"/>
</g>
<g id="gateway">
<path d="M249 138.261 C200.36 141.846 162 182.448 162 232 L162 329 L60 405 L115 405 L194 341 L194 232 C194 200.132 218.044 173.902 249 170.396 Z" fill="url(#fg-icon-dark-gate)"/>
<path d="M249 138.261 C200.36 141.846 162 182.448 162 232 L162 329 L60 405 L115 405 L194 341 L194 232 C194 200.132 218.044 173.902 249 170.396 Z" transform="translate(512 0) scale(-1 1)" fill="url(#fg-icon-dark-gate)"/>
<path d="M249 138.261 C200.36 141.846 162 182.448 162 232 V329 L60 405 L64.6 401.7 L164 329.8 V232 C164 183.553 201.87 143.93 249 140.27 Z" fill="url(#fg-icon-dark-edge)"/>
<path d="M249 138.261 C200.36 141.846 162 182.448 162 232 V329 L60 405 L64.6 401.7 L164 329.8 V232 C164 183.553 201.87 143.93 249 140.27 Z" transform="translate(512 0) scale(-1 1)" fill="url(#fg-icon-dark-edge)"/>
</g>
<g id="gate-panels">
<path d="M111 244 L150 221 L150 317 L111 340 Z" fill="url(#fg-icon-dark-panel)"/>
<path d="M111 244 L150 221 L150 317 L111 340 Z" transform="translate(512 0) scale(-1 1)" fill="url(#fg-icon-dark-panel)"/>
<path d="M111 244 L150 221 V223.6 L113.1 245.3 V338.76 L111 340 Z" fill="#B8E7F0" opacity="0.88"/>
<path d="M111 244 L150 221 V223.6 L113.1 245.3 V338.76 L111 340 Z" transform="translate(512 0) scale(-1 1)" fill="#B8E7F0" opacity="0.88"/>
</g>
<path id="navigation-star" d="M256 245 C259.7 261.9 260.1 264.6 276 269 C260.1 273.4 259.7 276.1 256 293 C252.3 276.1 251.9 273.4 236 269 C251.9 264.6 252.3 261.9 256 245 Z" fill="#19E1E9"/>
<g id="passage-steps">
<path d="M233.5 313 H278.5 L282.5 317 H229.5 Z" fill="url(#fg-icon-dark-step)"/>
<path d="M223.5 325 H288.5 L294.5 331 H217.5 Z" fill="url(#fg-icon-dark-step)"/>
<path d="M206.5 343 H305.5 L313.5 351 H198.5 Z" fill="url(#fg-icon-dark-step)"/>
<path d="M184.5 365 H327.5 L338.5 376 H173.5 Z" fill="url(#fg-icon-dark-step)"/>
<path d="M158 391 H354 L368 405 H144 Z" fill="url(#fg-icon-dark-step)"/>
</g></g>
</svg>
